<?xml version="1.0" encoding="UTF-8"?> <svg xmlns="http://www.w3.org/2000/svg" width="115" height="77" viewBox="0 0 115 77" fill="none"><path d="M10.0148 1.14678e-05C12.9826 1.14678e-05 15.4502 1.05445 17.4177 3.16332L15.1443 5.42927C14.5243 4.69023 13.7405 4.09813 12.852 3.69757C11.9635 3.29701 10.9934 3.09843 10.0148 3.1168C9.11799 3.09851 8.2274 3.2658 7.40164 3.60765C6.57589 3.9495 5.8337 4.45816 5.22394 5.10015C4.5873 5.69837 4.08297 6.4175 3.74203 7.2132C3.4011 8.0089 3.23078 8.86432 3.24157 9.72671C3.24157 12.3074 4.14468 14.1015 5.95091 15.109C6.79022 15.5501 7.70954 16.0064 8.70886 16.4778C9.74172 16.9501 10.8222 17.4066 11.9504 17.8473C14.109 18.7018 16.1174 19.8806 17.9025 21.3409C19.7405 22.8206 20.6597 25.4019 20.66 29.085C20.6837 30.6179 20.3821 32.1391 19.7743 33.5528C19.1664 34.9664 18.2654 36.2421 17.1279 37.2996C14.7731 39.3154 11.983 40.3223 8.75749 40.3201C5.46729 40.3201 2.64514 39.3132 0.291026 37.2996L2.61256 35.0811C3.40749 35.8855 4.36286 36.5225 5.41975 36.9528C6.47664 37.3831 7.61265 37.5975 8.75773 37.5829C9.9028 37.5975 11.0388 37.3831 12.0957 36.9528C13.1526 36.5225 14.108 35.8855 14.9029 35.0811C15.727 34.3054 16.3797 33.3732 16.8205 32.3419C17.2614 31.3107 17.4812 30.2023 17.4664 29.085C17.4664 26.0625 16.547 23.9846 14.7084 22.8514C12.8171 21.677 10.8066 20.6964 8.70886 19.9251C6.58499 19.0921 4.57084 18.0142 2.70933 16.7144C0.903112 15.3924 0 13.0632 0 9.72671C0 7.08287 0.983912 4.80079 2.95174 2.88048C3.86496 1.955 4.96283 1.22193 6.17761 0.72652C7.39238 0.231107 8.6983 -0.0161475 10.0148 1.14678e-05Z" fill="#FD7215"></path><path d="M29.8519 3.68274V10.6234H34.689V13.7402H29.8505V34.5143C29.8505 36.2141 30.7051 37.0639 32.4142 37.0638H34.1079V40.1806H32.367C31.6088 40.1816 30.8579 40.0351 30.1584 39.7495C29.4589 39.4639 28.8249 39.045 28.2933 38.5174C27.7617 37.9897 27.3433 37.3639 27.0626 36.6766C26.7819 35.9892 26.6445 35.2541 26.6585 34.5143V13.7397H21.917V10.6234H26.6587V3.68274H29.8519Z" fill="#FD7215"></path><path d="M60.7198 23.7972V23.278C60.7407 21.956 60.4806 20.6441 59.9561 19.425C59.4315 18.2059 58.6538 17.1062 57.672 16.195C56.7384 15.2369 55.6114 14.4779 54.3622 13.9659C53.1131 13.454 51.7687 13.2001 50.414 13.2203C49.0527 13.2031 47.7022 13.4581 46.4458 13.9697C45.1893 14.4813 44.0536 15.2386 43.1086 16.195C42.1267 17.1061 41.3489 18.2058 40.8242 19.4248C40.2996 20.6439 40.0394 21.9557 40.0601 23.2778V23.7972H60.7198ZM60.2365 36.5434C57.5591 39.0617 54.285 40.3204 50.414 40.3196C46.7053 40.3196 43.5121 39.1551 40.8345 36.826C39.5539 35.6151 38.5413 34.161 37.859 32.5534C37.1767 30.9458 36.8392 29.2188 36.8674 27.4789V23.278C36.8674 19.6568 38.1897 16.5561 40.8345 13.976C43.5118 11.3633 46.705 10.057 50.414 10.057C54.1231 10.057 57.3004 11.3475 59.9459 13.9283C62.6234 16.4784 63.9619 19.5949 63.9614 23.278V26.9598H40.0601V27.4792C40.0391 28.8152 40.2987 30.1413 40.823 31.3757C41.3473 32.6101 42.1252 33.7266 43.1086 34.6564C45.2049 36.6077 47.6401 37.5832 50.414 37.5829C53.3497 37.5829 55.8659 36.497 57.9626 34.3252L60.2365 36.5434Z" fill="#FD7215"></path><path d="M90.4749 23.7972V23.278C90.4958 21.956 90.2357 20.6441 89.7112 19.425C89.1866 18.2059 88.4089 17.1062 87.4271 16.195C86.4934 15.2369 85.3665 14.478 84.1173 13.966C82.8681 13.4541 81.5238 13.2001 80.1691 13.2203C78.8078 13.2029 77.4572 13.4579 76.2008 13.9695C74.9443 14.4812 73.8086 15.2385 72.8637 16.195C71.8818 17.1061 71.104 18.2058 70.5793 19.4248C70.0547 20.6439 69.7945 21.9557 69.8152 23.2778V23.7972H90.4749ZM89.9916 36.5434C87.3142 39.0617 84.0401 40.3204 80.1691 40.3196C76.4604 40.3196 73.2672 39.1551 70.5896 36.826C69.3089 35.6152 68.2962 34.1611 67.6137 32.5535C66.9313 30.9458 66.5937 29.2188 66.6217 27.4789V23.278C66.6217 19.6568 67.9443 16.5561 70.5896 13.976C73.2669 11.3633 76.4601 10.057 80.1691 10.057C83.8782 10.057 87.0553 11.3475 89.7005 13.9283C92.3782 16.4784 93.7168 19.5949 93.7165 23.278V26.9598H69.8152V27.4792C69.7942 28.8152 70.0538 30.1413 70.5781 31.3757C71.1024 32.6101 71.8802 33.7266 72.8637 34.6564C74.96 36.6077 77.3952 37.5832 80.1691 37.5829C83.1048 37.5829 85.621 36.497 87.7177 34.3252L89.9916 36.5434Z" fill="#FD7215"></path><path d="M100.006 0.519409V34.5138C100.006 36.2136 100.877 37.0634 102.618 37.0633H103.199V40.1801H102.57C101.806 40.1935 101.046 40.0537 100.339 39.7694C99.6316 39.4852 98.9915 39.0624 98.4583 38.5272C97.9179 38.0033 97.4932 37.3769 97.2104 36.6866C96.9275 35.9964 96.7925 35.2569 96.8137 34.5138V0.519409H100.006Z" fill="#FD7215"></path><path d="M19.7349 42.4411H22.9764V37.1996H19.7349V42.4411ZM19.7349 37.1996V76.8598H22.9764V47.3029H19.7349V37.1996Z" fill="black"></path><path d="M54.7154 76.8593H51.4738V59.9561C51.4944 58.6343 51.2342 57.3227 50.7097 56.1039C50.1851 54.8851 49.4076 53.7855 48.426 52.8745C47.4923 51.9165 46.3653 51.1575 45.1161 50.6455C43.867 50.1335 42.5227 49.8795 41.168 49.8996C39.8067 49.8822 38.4561 50.1372 37.1996 50.6489C35.9432 51.1605 34.8075 51.918 33.8625 52.8745C32.8933 53.7922 32.127 54.8941 31.6111 56.1121C31.0951 57.3301 30.8404 58.6383 30.8627 59.9561V76.8593H27.6211V59.9561C27.6211 56.3355 28.9437 53.2351 31.5889 50.6548C34.2659 48.0423 37.4589 46.7363 41.168 46.7369C42.9511 46.7094 44.7211 47.0387 46.3687 47.7045C48.0164 48.3702 49.5068 49.3583 50.748 50.6078C52.0286 51.8189 53.0413 53.2732 53.7237 54.8811C54.406 56.4889 54.7435 58.2161 54.7154 59.9561V76.8593Z" fill="black"></path><path d="M81.8576 59.9572C81.8783 58.6355 81.6183 57.3238 81.0939 56.105C80.5694 54.8861 79.792 53.7865 78.8105 52.8754C77.8768 51.9172 76.7499 51.1581 75.5008 50.6459C74.2516 50.1337 72.9073 49.8796 71.5525 49.8996C70.191 49.8823 68.8405 50.1375 67.584 50.6493C66.3275 51.1611 65.1919 51.9187 64.247 52.8754C63.2652 53.7865 62.4874 54.8863 61.9628 56.1053C61.4381 57.3243 61.1779 58.6362 61.1985 59.9582V64.1584C61.1774 65.4945 61.4371 66.8206 61.9614 68.055C62.4857 69.2894 63.2635 70.4059 64.247 71.3356C66.3434 73.2869 68.7785 74.2627 71.5525 74.2628C72.9072 74.2831 74.2515 74.0292 75.5007 73.5171C76.7499 73.0051 77.8769 72.2461 78.8105 71.2879C79.7905 70.3657 80.5664 69.2573 81.0905 68.0311C81.6146 66.8049 81.8756 65.4869 81.8576 64.1584V59.9572ZM85.0991 59.9572V64.1584C85.0991 67.779 83.761 70.8951 81.0846 73.5067C78.4073 75.8371 75.2299 77.0017 71.5525 77.0003C67.8437 77.0003 64.6505 75.8357 61.9729 73.5067C60.692 72.2958 59.679 70.8415 58.9965 69.2337C58.3141 67.6258 57.9767 65.8985 58.0051 64.1584V59.9572C58.0051 56.3367 59.3277 53.2362 61.9729 50.656C64.6502 48.0433 67.8434 46.737 71.5525 46.737C73.3356 46.7094 75.1055 47.0386 76.7532 47.7044C78.4009 48.3701 79.8913 49.3583 81.1325 50.6078C82.4131 51.8193 83.4258 53.274 84.108 54.8822C84.7902 56.4903 85.1275 58.2179 85.0991 59.9582" fill="black"></path><path d="M110.259 47.3031L101.548 58.7759L92.792 47.3031H88.5815L99.421 61.5147L88.1484 76.8602H92.2593L101.548 64.2526L110.79 76.8593H115L103.629 61.5147L114.466 47.3031H110.259Z" fill="black"></path></svg> 